<svg style="display:none;" shape-rendering="geometricPrecision" version="1.1" xmlns:xlink="http://www.w3.org/1999/xlink" xmlns="http://www.w3.org/2000/svg">

  <symbol id="machine">
      <path d="M32,24H16.6v4.9h4.2v1.2h-9.8v-1.2h4.2V24H0V1.9h32L32,24L32,24z M1.2,3.1v19.7h29.5V3.1H1.2z"/>
    </symbol>

  <symbol id="status">
    <circle cx="16" cy="16" r="16"/>
  </symbol>

  <symbol id="logout">
    <path
      d="M22.2,2.6c1.4,0.6,2.6,1.4,3.7,2.3c1.1,1,2.1,2,2.9,3.2c0.8,1.3,1.4,2.6,1.9,4s0.7,2.9,0.7,4.6 c0,2.1-0.4,4.1-1.2,6c-0.8,1.9-1.9,3.5-3.3,4.9c-1.4,1.4-3.1,2.5-4.9,3.3c-1.9,0.8-3.9,1.2-6,1.2s-4.1-0.4-6-1.2s-3.5-1.9-4.9-3.3 c-1.4-1.4-2.5-3-3.3-4.9c-0.8-1.9-1.2-3.9-1.2-6c0-1.6,0.2-3,0.6-4.4c0.4-1.4,1-2.7,1.8-3.9c0.8-1.2,1.7-2.3,2.8-3.2 c1.1-1,2.3-1.7,3.6-2.3v1.4C8.3,4.8,7.3,5.6,6.3,6.4S4.6,8.2,4,9.3c-0.7,1.1-1.2,2.2-1.5,3.5c-0.4,1.3-0.6,2.6-0.6,3.9 c0,1.9,0.4,3.7,1.1,5.5s1.7,3.2,3,4.5c1.3,1.3,2.8,2.3,4.5,3.1s3.5,1.1,5.5,1.1s3.8-0.4,5.5-1.1s3.2-1.7,4.5-3.1 c1.3-1.3,2.3-2.8,3-4.5c0.7-1.7,1.1-3.5,1.1-5.5c0-1.4-0.2-2.8-0.6-4c-0.4-1.3-1-2.5-1.7-3.6C27.2,8,26.3,7,25.4,6.2 s-2-1.6-3.2-2.2L22.2,2.6L22.2,2.6z M15.2,0v15.3h1.3V0H15.2z"/>
  </symbol>

  <symbol id="search">
    <path d="M32,30.3L30.3,32l-9.2-9.2c-0.5,0.5-1.1,0.9-1.8,1.3c-0.6,0.4-1.3,0.7-2,1c-0.7,0.3-1.4,0.5-2.2,0.6 c-0.8,0.1-1.5,0.2-2.3,0.2c-1.8,0-3.5-0.3-5.1-1c-1.6-0.7-2.9-1.6-4.1-2.8S1.7,19.4,1,17.9s-1-3.2-1-5c0-1.8,0.3-3.5,1-5.1 s1.6-2.9,2.7-4.1S6.3,1.7,7.8,1s3.3-1,5.1-1c1.8,0,3.4,0.3,5,1s2.9,1.6,4.1,2.7s2.1,2.5,2.8,4.1c0.7,1.6,1,3.3,1,5.1 c0,0.7-0.1,1.5-0.2,2.3c-0.1,0.8-0.3,1.5-0.6,2.2c-0.3,0.7-0.6,1.4-1,2c-0.4,0.6-0.8,1.2-1.3,1.8L32,30.3z M1.4,12.9 c0,1.6,0.3,3.1,0.9,4.5S3.6,20,4.7,21s2.3,1.9,3.7,2.5c1.4,0.6,2.9,0.9,4.5,0.9s3.1-0.3,4.5-0.9c1.4-0.6,2.6-1.4,3.7-2.5 s1.9-2.3,2.5-3.7c0.6-1.4,0.9-2.9,0.9-4.5s-0.3-3.1-0.9-4.5C22.9,7,22.1,5.8,21,4.7s-2.3-1.9-3.7-2.5s-2.9-0.9-4.5-0.9 S9.8,1.6,8.4,2.2S5.8,3.6,4.7,4.7S2.8,7,2.2,8.4S1.4,11.3,1.4,12.9z"/>
  </symbol>

  <symbol id="close">
    <path d="M16,0C7.2,0,0,7.2,0,16s7.2,16,16,16s16-7.2,16-16S24.8,0,16,0z M16,30.9C7.8,30.9,1.1,24.2,1.1,16 S7.8,1.1,16,1.1S30.9,7.8,30.9,16C30.8,24.2,24.2,30.9,16,30.9z"/>
    <polygon points="23.7,22.7 17,16 23.7,9.3 22.8,8.4 16.1,15.1 9.3,8.4 8.4,9.3 15.1,16 8.4,22.8 9.3,23.7 16.1,16.9 22.8,23.6 "/>
  </symbol>

  <symbol id="save">
    <path class="st0" d="M25.3,0L32,6.7V32H0V0H25.3z M30.7,30.7V7.2l-5.9-5.9H24V12H8V1.3H1.3v29.3L30.7,30.7L30.7,30.7z M22.6,1.3 H9.4v9.3h13.3C22.6,10.7,22.6,1.3,22.6,1.3z M9.4,21.3v1.3h13.3v-1.3H9.4z M9.4,25.3v1.3h13.3v-1.3H9.4z M18.7,4v4h1.4V4H18.7z"/>
  </symbol>

  <symbol id="errors">
    <path class="st0"
      d="M16,2.1l16,27.9H0L16,2.1z M16,4.4L2,28.7h28L16,4.4z M16,23.5c0.2,0,0.4,0.1,0.6,0.3c0.2,0.2,0.3,0.4,0.3,0.6 c0,0.3-0.1,0.5-0.3,0.7c-0.2,0.2-0.4,0.3-0.6,0.3s-0.4-0.1-0.6-0.3c-0.2-0.2-0.3-0.4-0.3-0.7c0-0.2,0.1-0.4,0.3-0.6 C15.5,23.5,15.8,23.5,16,23.5z M15.4,13.3v8.3h1.3v-8.3H15.4z"/>
  </symbol>

  <symbol id="send">
    <path class="st0" d="M11.7,20.5L0,15.3L32,0L17.4,32L11.7,20.5z M12,19.2L27.6,3.5L3.1,15.3L12,19.2z M17.4,29.1L28.6,4.3 L12.9,20.1L17.4,29.1z"/>
  </symbol>

  <symbol id="delete">
    <path
      d="M28.9,3.8v1.3h-1.3l-1.3,24.3c0,0.4-0.1,0.7-0.2,1c-0.1,0.3-0.3,0.6-0.6,0.8c-0.2,0.2-0.5,0.4-0.8,0.6 s-0.7,0.2-1,0.2h-14c-0.4,0-0.7-0.1-1-0.2s-0.6-0.3-0.8-0.6c-0.2-0.2-0.4-0.5-0.6-0.8s-0.2-0.7-0.2-1L5.9,5.1H4.5V3.8h6.4V2.6 c0-0.4,0.1-0.7,0.2-1c0.2-0.3,0.3-0.6,0.5-0.8c0.2-0.2,0.5-0.4,0.8-0.6s0.6-0.2,1-0.2h6.5c0.4,0,0.7,0.1,1,0.2s0.6,0.3,0.8,0.6 c0.2,0.2,0.4,0.5,0.5,0.8c0.2,0.3,0.2,0.7,0.2,1v1.3H28.9z M25,29.4l1.3-24.3H7.2l1.3,24.3v0.1c0,0.4,0.1,0.7,0.4,0.9 s0.5,0.4,0.9,0.4h14c0.4,0,0.7-0.1,0.9-0.4S25,29.8,25,29.4C25,29.4,25,29.4,25,29.4z M12.3,28.2L10.9,7.7l1.3-0.1l1.4,20.5 L12.3,28.2z M12.2,2.6v1.3h9V2.6c0-0.4-0.1-0.7-0.4-0.9c-0.2-0.2-0.5-0.4-0.9-0.4h-6.4c-0.4,0-0.7,0.1-0.9,0.4 C12.3,1.9,12.2,2.2,12.2,2.6z M16,7.7v20.5h1.4V7.7H16z M21.2,28.2l-1.3-0.1l1.3-20.5l1.3,0.1L21.2,28.2z"/>
  </symbol>

  <symbol id="edit">
    <path
      d="M30.8,1.5c-1-1-2.6-1-3.7-0.1l0,0L1.5,27c-0.1,0.1-0.2,0.2-0.2,0.3l-0.5,3.4c-0.1,0.4,0.3,0.8,0.7,0.7l3.4-0.5 c0.1,0,0.2-0.1,0.3-0.2L30.9,5.1l0,0C31.8,4.1,31.8,2.5,30.8,1.5z M4.5,29.8l-1.7,0.3c0-0.3-0.3-0.5-0.6-0.6l0.3-1.7 c0.6-0.6,1.5-0.6,2,0C5,28.3,5,29.2,4.5,29.8z M29.9,4.4L6,28.3c-0.1-0.5-0.3-1-0.7-1.3C5,26.5,4.5,26.3,4,26.2L27.9,2.3 c0.6-0.6,1.5-0.6,2,0C30.5,2.9,30.5,3.8,29.9,4.4z"/>
  </symbol>
</svg>
